# xmcd CD database file
#
# Track frame offsets:
#	182
#	13582
#	25197
#	37920
#	52505
#	63485
#	78017
#	88260
#	100152
#	111285
#	124475
#	135537
#	148560
#	157272
#	170450
#	180097
#	189990
#	203005
#	218185
#	228917
#	239042
#	252600
#
# Disc length: 3401 seconds
#
# Revision: 0
# Processed by: cddbd v1.4PL0 Copyright (c) Steve Scherf et al.
# Submitted via: CDex 1.50beta9
#
DISCID=280d4716
DTITLE=Lonesome Sundown - Leave my money alone
DYEAR=1900
DGENRE=Blues
TTITLE0=Leave My Money Alone 
TTITLE1=Lost Without Love 
TTITLE2=Lonesome Whistler 
TTITLE3=My Home Is A Prison 
TTITLE4=Don't Say A Word 
TTITLE5=Lonely Lonely Me 
TTITLE6=Mojo Man 
TTITLE7=I Stood By 
TTITLE8=Don't Go 
TTITLE9=I'll Still Be Loving You 
TTITLE10=Give It Up 
TTITLE11=Bad Woman Blues 
TTITLE12=Learn To Treat Me Better 
TTITLE13=No Use To Worry 
TTITLE14=Gonna Stick With You Baby 
TTITLE15=You Know I Love You 
TTITLE16=I Never Thought 
TTITLE17=I'm So Tired 
TTITLE18=If Anybody Asks You 
TTITLE19=I've Got A Broken Heart Baby 
TTITLE20=I Got Love In My Heart 
TTITLE21=Instrumental Interlude 
EXTD=
EXTT0=
EXTT1=
EXTT2=
EXTT3=
EXTT4=
EXTT5=
EXTT6=
EXTT7=
EXTT8=
EXTT9=
EXTT10=
EXTT11=
EXTT12=
EXTT13=
EXTT14=
EXTT15=
EXTT16=
EXTT17=
EXTT18=
EXTT19=
EXTT20=
EXTT21=
PLAYORDER=
